<?xml version="1.0" standalone="no"?>
<!DOCTYPE svg PUBLIC "-//W3C//DTD SVG 20010904//EN"
 "http://www.w3.org/TR/2001/REC-SVG-20010904/DTD/svg10.dtd">
<svg version="1.0" xmlns="http://www.w3.org/2000/svg"
 width="512.000000pt" height="512.000000pt" viewBox="0 0 512.000000 512.000000"
 preserveAspectRatio="xMidYMid meet">

<g transform="translate(0.000000,512.000000) scale(0.100000,-0.100000)"
fill="#000000" stroke="none">
<path d="M2263 4696 l-28 -24 0 -272 0 -272 28 -24 c31 -26 54 -30 90 -13 43
20 47 45 47 315 l0 256 -29 29 c-36 36 -70 37 -108 5z"/>
<path d="M1595 4555 c-18 -17 -25 -35 -25 -61 0 -36 11 -49 183 -220 192 -192
218 -210 266 -183 41 23 55 61 37 101 -7 18 -94 113 -193 211 -158 156 -183
177 -212 177 -21 0 -41 -9 -56 -25z"/>
<path d="M2758 4392 c-177 -177 -188 -190 -188 -226 0 -48 36 -86 81 -86 28 0
54 22 212 178 98 97 186 191 193 209 24 56 -16 113 -80 113 -25 0 -58 -28
-218 -188z"/>
<path d="M4605 4385 c-237 -69 -255 -79 -255 -139 0 -42 35 -76 79 -76 18 0
82 14 142 32 60 17 112 29 114 26 3 -3 -182 -415 -410 -917 -228 -502 -415
-924 -415 -937 0 -42 198 -712 230 -780 61 -126 166 -209 282 -221 41 -4 81 1
158 21 114 29 175 34 237 17 45 -12 117 -62 139 -97 14 -20 -3 -25 -777 -248
-435 -125 -793 -225 -797 -222 -10 10 17 97 44 143 35 60 95 97 223 139 130
42 192 84 234 161 39 74 51 148 38 247 -10 70 -181 691 -212 768 -8 19 -101
85 -342 244 -183 119 -339 223 -347 231 -13 13 -13 15 5 25 38 22 75 67 75 92
0 59 -25 71 -345 164 l-300 88 -224 147 c-123 81 -221 150 -219 152 3 3 481
142 1064 310 582 168 1070 314 1084 324 57 41 26 141 -44 141 -17 0 -553 -151
-1191 -335 -1020 -294 -1163 -337 -1182 -360 -47 -54 -24 -98 92 -170 41 -25
75 -48 75 -50 0 -2 -12 0 -27 4 -376 111 -907 261 -921 261 -27 0 -69 -35 -76
-65 -9 -34 16 -79 51 -93 15 -6 413 -122 883 -257 470 -136 886 -255 924 -266
57 -17 66 -23 55 -34 -8 -7 -333 -223 -724 -479 -390 -257 -718 -476 -727
-489 -16 -20 -162 -507 -186 -622 -30 -138 -22 -227 26 -305 42 -67 99 -105
213 -140 114 -35 164 -72 199 -145 47 -96 88 -103 -662 113 -373 108 -678 199
-678 203 0 16 46 52 89 72 57 25 124 24 225 -3 205 -57 340 19 421 235 27 71
185 615 185 636 0 8 -164 374 -364 814 -200 440 -363 801 -362 802 1 1 33 -7
71 -18 57 -16 75 -17 98 -8 52 22 65 94 23 131 -24 22 -299 107 -347 108 -41
0 -79 -35 -79 -74 0 -21 134 -327 394 -898 l394 -866 -84 -292 c-89 -307 -105
-349 -151 -391 -43 -41 -63 -42 -180 -13 -182 45 -308 19 -425 -85 -50 -45
-118 -164 -118 -208 0 -62 -1 -62 849 -307 849 -245 823 -239 862 -186 31 42
36 162 11 246 -45 146 -141 236 -311 289 -134 42 -161 78 -148 198 6 55 162
606 174 617 26 23 1355 890 1363 890 13 0 678 -435 701 -459 22 -21 198 -637
206 -716 6 -73 -9 -134 -42 -167 -15 -15 -66 -38 -137 -61 -63 -21 -135 -52
-164 -71 -146 -98 -225 -279 -195 -443 15 -80 40 -113 86 -113 18 0 436 117
931 259 649 188 902 264 911 278 27 35 26 63 -3 131 -39 95 -143 197 -239 237
-61 25 -83 29 -170 29 -74 0 -120 -6 -176 -22 -100 -29 -145 -28 -191 3 -58
40 -98 136 -199 486 l-91 316 451 990 c248 545 451 1002 451 1017 0 36 -41 76
-77 75 -15 0 -127 -29 -248 -64z"/>
<path d="M4105 3915 c-5 -2 -341 -99 -745 -215 -404 -116 -745 -218 -757 -226
-26 -16 -38 -53 -29 -89 4 -17 166 -154 537 -456 292 -237 544 -436 560 -442
32 -12 73 4 90 36 6 10 46 123 90 252 87 256 89 273 35 306 -34 21 -69 18 -98
-8 -10 -9 -43 -94 -75 -189 -32 -96 -60 -174 -63 -174 -3 0 -189 149 -414 332
-392 318 -408 333 -380 340 16 4 277 79 579 167 303 87 551 158 552 157 2 -1
-20 -69 -47 -151 -28 -82 -50 -163 -50 -180 0 -63 79 -98 130 -57 15 12 46 91
105 264 74 219 83 251 73 278 -13 38 -61 66 -93 55z"/>
<path d="M839 3280 c-9 -5 -22 -23 -29 -39 -11 -27 0 -63 125 -433 276 -813
256 -760 292 -781 24 -13 40 -16 57 -10 29 9 941 747 962 777 8 11 14 32 14
47 0 56 -19 65 -309 149 -151 44 -287 80 -303 80 -44 0 -81 -45 -74 -90 3 -19
14 -42 24 -51 11 -8 103 -40 206 -69 102 -30 186 -57 186 -61 0 -8 -681 -562
-685 -557 -9 9 -284 832 -280 836 2 3 63 -12 133 -32 140 -40 165 -39 196 6
22 31 20 62 -6 93 -19 21 -61 37 -228 85 -205 60 -251 68 -281 50z"/>
</g>
</svg>
